<?xml version="1.0" standalone="no"?>
<!DOCTYPE svg PUBLIC "-//W3C//DTD SVG 20010904//EN"
 "http://www.w3.org/TR/2001/REC-SVG-20010904/DTD/svg10.dtd">
<svg version="1.0" xmlns="http://www.w3.org/2000/svg"
 width="152.000000pt" height="152.000000pt" viewBox="0 0 152.000000 152.000000"
 preserveAspectRatio="xMidYMid meet">
<metadata>
Created by potrace 1.11, written by Peter Selinger 2001-2013
</metadata>
<g transform="translate(0.000000,152.000000) scale(0.100000,-0.100000)"
fill="#000000" stroke="none">
<path d="M548 1464 c32 -39 69 -130 59 -141 -3 -3 -20 0 -38 6 -18 6 -54 11
-80 11 l-48 0 49 -66 c28 -36 50 -70 50 -77 0 -7 -27 -39 -61 -72 -70 -69
-134 -185 -124 -224 11 -44 -39 -124 -131 -208 -46 -43 -87 -85 -90 -95 -10
-33 35 -79 115 -116 42 -20 88 -45 103 -55 43 -32 106 -19 188 37 38 26 86 54
109 63 37 15 42 14 67 -1 14 -10 35 -38 46 -64 42 -95 4 -247 -90 -355 -23
-27 -42 -50 -42 -52 0 -15 183 84 263 141 56 40 60 31 23 -58 l-24 -58 51 42
c99 83 190 211 233 328 13 35 13 35 13 -30 0 -36 -6 -96 -14 -134 -8 -38 -13
-71 -11 -74 8 -8 69 83 98 147 67 145 76 335 22 466 -7 18 -6 19 11 5 23 -19
79 -105 93 -145 9 -27 11 -22 11 41 2 149 -77 296 -194 362 -33 19 10 15 46
-4 17 -8 33 -14 35 -11 11 10 -81 118 -128 150 -68 47 -126 67 -213 74 l-70 6
-65 67 c-75 77 -148 116 -234 126 l-59 7 31 -39z m156 -61 c38 -25 106 -92
106 -104 0 -4 -12 -9 -27 -12 -23 -5 -34 0 -56 26 -20 22 -27 26 -22 12 17
-47 16 -54 -4 -65 -17 -8 -22 -8 -25 2 -2 7 -9 33 -16 58 -6 25 -20 60 -31 78
-10 18 -19 36 -19 39 0 11 56 -9 94 -34z m-128 -95 c18 -6 35 -21 38 -32 6
-23 -2 -36 -12 -19 -4 6 -25 22 -46 37 -41 28 -33 34 20 14z m212 -195 c3 -34
-10 -78 -35 -124 -2 -4 20 5 49 20 79 39 162 37 249 -6 36 -18 73 -41 83 -52
17 -19 17 -19 -24 -10 -37 8 -154 -2 -167 -15 -3 -3 18 -15 46 -27 136 -58
174 -216 100 -414 l-23 -60 -12 66 c-7 37 -20 82 -30 100 l-17 34 -13 -69
c-16 -83 -59 -177 -106 -231 l-36 -40 11 51 c14 70 -4 131 -57 191 -37 42 -39
46 -16 40 14 -4 36 -10 50 -14 l25 -6 -20 23 c-31 34 -69 50 -122 50 -53 0
-73 -10 -144 -76 -25 -23 -64 -53 -87 -68 -42 -26 -132 -47 -132 -30 0 5 24
21 53 36 104 55 237 186 237 235 0 18 -50 17 -78 -3 -12 -8 -56 -58 -98 -110
-74 -94 -121 -134 -158 -134 -10 0 -40 12 -67 28 -58 32 -63 55 -19 97 22 21
29 36 26 51 -5 17 7 36 49 79 63 66 95 126 95 177 0 87 162 219 303 248 72 14
82 10 85 -37z m-198 -443 c0 -5 -7 -10 -16 -10 -9 0 -14 -6 -11 -13 3 -8 -3
-14 -15 -14 -20 -2 -20 -1 2 23 25 25 40 31 40 14z m-61 -76 c-7 -8 -26 -25
-43 -37 l-31 -22 33 43 c19 23 38 39 43 36 6 -3 5 -11 -2 -20z"/>
<path d="M584 1023 c-68 -23 -115 -71 -123 -124 l-7 -46 42 31 c24 17 43 37
43 43 1 7 21 34 46 60 25 25 44 47 42 48 -1 1 -21 -4 -43 -12z m-34 -48 c-7
-9 -15 -13 -17 -11 -7 7 7 26 19 26 6 0 6 -6 -2 -15z m-50 -54 c0 -6 -4 -13
-10 -16 -5 -3 -10 1 -10 9 0 9 5 16 10 16 6 0 10 -4 10 -9z"/>
</g>
</svg>
